<?xml version="1.0" encoding="UTF-8" standalone="no"?>
<svg
   id="svg11"
   width="2048"
   height="1350"
   version="1.1"
   viewBox="0 0 2048 1350"
   xmlns="http://www.w3.org/2000/svg"
   xmlns:svg="http://www.w3.org/2000/svg">
  <defs
     id="defs14" />
  <linearGradient
     id="linear-gradient"
     x1="921.6"
     x2="225.6"
     y1="672.3"
     y2="-23.68"
     gradientTransform="matrix(2 0 0 2.002 .02644 .00557)"
     gradientUnits="userSpaceOnUse">
    <stop
       stop-color="#3217ff"
       offset="0"
       id="stop1" />
    <stop
       stop-color="#2b38ff"
       offset=".26"
       id="stop2" />
    <stop
       stop-color="#2455ff"
       offset=".5"
       id="stop3" />
    <stop
       stop-color="#1d74ff"
       offset=".75"
       id="stop4" />
    <stop
       stop-color="#1792ff"
       offset="1"
       id="stop5" />
  </linearGradient>
  <linearGradient
     id="linear-gradient-2"
     x1="551.7"
     x2="438.4"
     y1="654.3"
     y2="12.11"
     gradientTransform="matrix(2 0 0 2.002 .02644 .00557)"
     gradientUnits="userSpaceOnUse">
    <stop
       stop-color="#0e80ff"
       offset="0"
       id="stop6" />
    <stop
       stop-color="#0789ff"
       offset=".13"
       id="stop7" />
    <stop
       stop-color="#0090ff"
       offset=".25"
       id="stop8" />
    <stop
       stop-color="#009dff"
       offset=".38"
       id="stop9" />
    <stop
       stop-color="#0af"
       offset=".5"
       id="stop10" />
    <stop
       stop-color="#00b7ff"
       offset=".62"
       id="stop11" />
    <stop
       stop-color="#00c4ff"
       offset=".75"
       id="stop12" />
    <stop
       stop-color="#21ccff"
       offset=".87"
       id="stop13" />
    <stop
       stop-color="#46d4ff"
       offset="1"
       id="stop14" />
  </linearGradient>
  <g
     id="layer3"
     style="display:none">
    <path
       id="dolphin-border"
       d="m 2045,1275 c -2.54,0.3605 -77.04,-340.4 -269,-529.8 C 1619.5,590.8 1265.4,289.1 805.5,322 445.6,347.69 495,520.7 514.8,512.4 c 56.36,-23.55 320.9,-98.76 603,59.19 249.4,139.7 345,373.7 330.1,391.9 -3.18,3.845 -90.3,-217.9 -489,-302.3 -309,-65.44 -633.2,-11.89 -771.2,42.97 -56.14,22.33 -147.8,83.24 -165.5,22.29 -16.62,-57.13 67,-103.2 76.86,-141.1 12.88,-49.5 3.98,-294.6 359.6,-399.6 138.3,-40.81 413.4,-80.1 713.5,12.18 14.82,3.244 32.68,1.862 44.16,-5.267 25.72,-15.98 77.94,-49.94 182.3,-59.19 200.6,-17.78 258,69.01 248.3,85.83 -4.88,8.49 -160.3,-41.01 -193.1,56.23 -12.24,36.2 13.56,56.63 31.88,69.23 65.34,42.63 126.8,90.93 183.7,144.4 133.1,124.6 225.6,258.2 300.8,439.9 59.88,144.6 87.14,344.1 74.8,345.9 z"
       fill="url(#linear-gradient)" />
    <path
       id="dolphin"
       d="m 2045,1275 c -4.3,0.6008 -147.2,-310 -339.1,-499.4 C 1549.4,621.2 1264.1,368.1 803.3,385.9 597.6,393.85 501.1,488.9 515,512.1 c 13.56,22.63 281.2,-62.12 567.1,88.87 260.2,137.4 370.9,359 365.5,363 -4.42,3.344 -202.2,-173.6 -501,-251.9 -1.16,-0.1802 -2.3,-0.4205 -3.46,-0.6808 -53.54,-13.18 -58.08,58.59 -2.96,127.3 63.8,79.5 93.76,86.45 90.66,96.68 -3.94,12.88 -126.2,17.58 -244.4,-65.12 -104.1,-72.87 -150.8,-171.8 -164.6,-184.5 -11.64,-10.71 -24.94,-8.11 -40.4,-7.89 h -1.9 c -166.1,6.308 -264.8,24.73 -392.3,75.39 -56.14,22.33 -133.5,27.13 -177.6,-18.5 -45.74,-47.36 78.04,-114.1 87.9,-151.9 12.88,-49.5 5.06,-242.9 360.7,-347.9 138.5,-40.89 414.2,-80.22 714.9,12.6 15.16,3.725 28.84,4.185 42.8,-5.687 37.12,-26.27 99.42,-61.58 203.7,-70.95 175.3,-15.72 231.4,38.27 226.9,48.24 -4.06,8.911 -160.3,8.31 -193.1,105.6 -12.24,36.2 13.56,56.63 31.88,69.23 65.34,42.63 126.8,90.93 183.7,144.4 133.1,124.6 225.6,258.2 300.8,439.9 59.86,144.6 79.96,296 74.96,296.8 z"
       fill="url(#linear-gradient-2)" />
  </g>
  <g
     id="layer7"
     style="display:inline">
    <path
       style="fill:none;fill-rule:evenodd;stroke:#663399;stroke-width:128.9;stroke-linecap:round;stroke-dasharray:none;stroke-opacity:1"
       id="path14"
       d="m 912.9426,696.16855 c -63.24072,3.78281 -99.95984,-65.15575 -92.50276,-120.6586 12.44403,-92.6206 112.34019,-141.82889 197.91856,-123.11516 121.7804,26.63018 184.3713,159.89288 153.7275,275.17846 C 1131.9527,878.55905 964.50974,954.77951 819.64755,911.9132 639.41024,858.57902 549.45269,656.59072 604.69519,482.21489 671.07181,272.69363 907.80003,168.94085 1111.6534,236.65014 1350.4809,315.97598 1468.0645,587.5602 1387.8306,820.8683 1295.6149,1089.0177 989.0998,1220.4555 726.35249,1127.6579 428.86989,1022.5924 283.56152,681.0953 388.95054,388.91984 506.8375,62.095661 883.35302,-97.095212 1204.9485,20.905488 1424.7346,101.55001 1588.0082,297.09881 1634.4486,525.78327"
       transform="translate(-120.29703,93.564357)" />
  </g>
  <g
     id="layer4"
     style="display:inline">
    <path
       id="circle"
       d="m 2030,830 a 498,498 0 0 1 -498,498 498,498 0 0 1 -498,-498 498,498 0 0 1 498,-498 498,498 0 0 1 498,498 z"
       fill="#2bc073"
       stroke-width="1.44" />
    <path
       id="tick"
       class="st1"
       d="M 1460,1047 1236.7,823.7 c -3.024,-3.024 -3.024,-7.569 0,-10.59 l 64.34,-64.34 c 3.024,-3.024 7.569,-3.024 10.59,0 l 153.6,153.6 289.2,-289.2 c 3.024,-3.024 7.569,-3.024 10.6,0 l 64.34,64.34 c 3.024,3.024 3.024,7.569 0,10.6 l -358.7,358.7 c -3.024,3.024 -7.569,3.024 -10.59,0 z"
       fill="#f9f9f9"
       stroke-width="1.44" />
  </g>
</svg>
